HIERARCHY
ROOT mixamorig:Hips
{
	OFFSET -0.000008 104.274872 1.554316
	CHANNELS 6 Xposition Yposition Zposition Xrotation Yrotation Zrotation
	JOINT mixamorig:Spine
	{
		OFFSET -0.000005 10.181595 0.131519
		CHANNELS 6 Xposition Yposition Zposition Xrotation Yrotation Zrotation
		JOINT mixamorig:Spine1
		{
			OFFSET -0.000000 9.893959 -1.470707
			CHANNELS 6 Xposition Yposition Zposition Xrotation Yrotation Zrotation
			JOINT mixamorig:Spine2
			{
				OFFSET -0.000000 9.220757 -1.370641
				CHANNELS 6 Xposition Yposition Zposition Xrotation Yrotation Zrotation
				JOINT mixamorig:Neck
				{
					OFFSET 0.000001 16.740417 -2.049036
					CHANNELS 6 Xposition Yposition Zposition Xrotation Yrotation Zrotation
					JOINT mixamorig:Head
					{
						OFFSET 0.000000 9.617874 1.685006
						CHANNELS 6 Xposition Yposition Zposition Xrotation Yrotation Zrotation
						JOINT mixamorig:HeadTop_End
						{
							OFFSET 0.000002 22.037354 7.501101
							CHANNELS 6 Xposition Yposition Zposition Xrotation Yrotation Zrotation
							End Site
							{
								OFFSET 0.000168 2310.654297 -282.823242
							}
						}
					}
				}
				JOINT mixamorig:RightShoulder
				{
					OFFSET -4.569970 11.014908 -2.160885
					CHANNELS 6 Xposition Yposition Zposition Xrotation Yrotation Zrotation
					JOINT mixamorig:RightArm
					{
						OFFSET -10.592851 -0.524811 -2.232101
						CHANNELS 6 Xposition Yposition Zposition Xrotation Yrotation Zrotation
						JOINT mixamorig:RightForeArm
						{
							OFFSET -27.841511 0.000031 -0.000004
							CHANNELS 6 Xposition Yposition Zposition Xrotation Yrotation Zrotation
							JOINT mixamorig:RightHand
							{
								OFFSET -28.328831 -0.000015 0.000015
								CHANNELS 6 Xposition Yposition Zposition Xrotation Yrotation Zrotation
								JOINT mixamorig:RightHandThumb1
								{
									OFFSET -2.464806 -1.573990 2.681852
									CHANNELS 6 Xposition Yposition Zposition Xrotation Yrotation Zrotation
									JOINT mixamorig:RightHandThumb2
									{
										OFFSET -3.215179 -1.872803 1.924282
										CHANNELS 6 Xposition Yposition Zposition Xrotation Yrotation Zrotation
										JOINT mixamorig:RightHandThumb3
										{
											OFFSET -2.654831 -1.527969 1.512609
											CHANNELS 6 Xposition Yposition Zposition Xrotation Yrotation Zrotation
											JOINT mixamorig:RightHandThumb4
											{
												OFFSET -2.018814 -1.152008 1.108052
												CHANNELS 6 Xposition Yposition Zposition Xrotation Yrotation Zrotation
												End Site
												{
													OFFSET -188.809540 -114.533607 132.431396
												}
											}
										}
									}
								}
								JOINT mixamorig:RightHandIndex1
								{
									OFFSET -9.108284 -0.517868 2.259835
									CHANNELS 6 Xposition Yposition Zposition Xrotation Yrotation Zrotation
									JOINT mixamorig:RightHandIndex2
									{
										OFFSET -3.699989 0.000000 0.001215
										CHANNELS 6 Xposition Yposition Zposition Xrotation Yrotation Zrotation
										JOINT mixamorig:RightHandIndex3
										{
											OFFSET -2.850006 0.000031 -0.000522
											CHANNELS 6 Xposition Yposition Zposition Xrotation Yrotation Zrotation
											JOINT mixamorig:RightHandIndex4
											{
												OFFSET -2.772186 -0.000015 -0.000020
												CHANNELS 6 Xposition Yposition Zposition Xrotation Yrotation Zrotation
												End Site
												{
													OFFSET -277.218445 0.000000 -0.050231
												}
											}
										}
									}
								}
								JOINT mixamorig:RightHandMiddle1
								{
									OFFSET -9.532516 -0.000031 -0.000023
									CHANNELS 6 Xposition Yposition Zposition Xrotation Yrotation Zrotation
									JOINT mixamorig:RightHandMiddle2
									{
										OFFSET -3.700005 -0.000015 0.003713
										CHANNELS 6 Xposition Yposition Zposition Xrotation Yrotation Zrotation
										JOINT mixamorig:RightHandMiddle3
										{
											OFFSET -2.949974 0.000015 -0.002054
											CHANNELS 6 Xposition Yposition Zposition Xrotation Yrotation Zrotation
											JOINT mixamorig:RightHandMiddle4
											{
												OFFSET -2.946640 0.000000 -0.000156
												CHANNELS 6 Xposition Yposition Zposition Xrotation Yrotation Zrotation
												End Site
												{
													OFFSET -294.664337 0.000000 -0.113670
												}
											}
										}
									}
								}
								JOINT mixamorig:RightHandRing1
								{
									OFFSET -9.103600 -0.043076 -1.865134
									CHANNELS 6 Xposition Yposition Zposition Xrotation Yrotation Zrotation
									JOINT mixamorig:RightHandRing2
									{
										OFFSET -3.379288 0.000000 -0.001055
										CHANNELS 6 Xposition Yposition Zposition Xrotation Yrotation Zrotation
										JOINT mixamorig:RightHandRing3
										{
											OFFSET -2.889687 -0.000015 0.000379
											CHANNELS 6 Xposition Yposition Zposition Xrotation Yrotation Zrotation
											JOINT mixamorig:RightHandRing4
											{
												OFFSET -2.638809 -0.000015 0.000941
												CHANNELS 6 Xposition Yposition Zposition Xrotation Yrotation Zrotation
												End Site
												{
													OFFSET -263.880371 0.000000 0.516020
												}
											}
										}
									}
								}
								JOINT mixamorig:RightHandPinky1
								{
									OFFSET -8.076683 -0.486710 -3.806280
									CHANNELS 6 Xposition Yposition Zposition Xrotation Yrotation Zrotation
									JOINT mixamorig:RightHandPinky2
									{
										OFFSET -3.600014 -0.000015 -0.003747
										CHANNELS 6 Xposition Yposition Zposition Xrotation Yrotation Zrotation
										JOINT mixamorig:RightHandPinky3
										{
											OFFSET -2.099983 0.000000 -0.005739
											CHANNELS 6 Xposition Yposition Zposition Xrotation Yrotation Zrotation
											JOINT mixamorig:RightHandPinky4
											{
												OFFSET -2.115768 -0.000031 -0.003680
												CHANNELS 6 Xposition Yposition Zposition Xrotation Yrotation Zrotation
												End Site
												{
													OFFSET -211.577087 0.000000 -0.350686
												}
											}
										}
									}
								}
							}
						}
					}
				}
				JOINT mixamorig:LeftShoulder
				{
					OFFSET 4.570447 11.014725 -2.160855
					CHANNELS 6 Xposition Yposition Zposition Xrotation Yrotation Zrotation
					JOINT mixamorig:LeftArm
					{
						OFFSET 10.592371 -0.524597 -2.232119
						CHANNELS 6 Xposition Yposition Zposition Xrotation Yrotation Zrotation
						JOINT mixamorig:LeftForeArm
						{
							OFFSET 27.841532 -0.000031 0.000026
							CHANNELS 6 Xposition Yposition Zposition Xrotation Yrotation Zrotation
							JOINT mixamorig:LeftHand
							{
								OFFSET 28.328846 -0.000061 0.000022
								CHANNELS 6 Xposition Yposition Zposition Xrotation Yrotation Zrotation
								JOINT mixamorig:LeftHandThumb1
								{
									OFFSET 2.466141 -1.576172 2.681732
									CHANNELS 6 Xposition Yposition Zposition Xrotation Yrotation Zrotation
									JOINT mixamorig:LeftHandThumb2
									{
										OFFSET 3.217812 -1.872070 1.916482
										CHANNELS 6 Xposition Yposition Zposition Xrotation Yrotation Zrotation
										JOINT mixamorig:LeftHandThumb3
										{
											OFFSET 2.656029 -1.528778 1.514513
											CHANNELS 6 Xposition Yposition Zposition Xrotation Yrotation Zrotation
											JOINT mixamorig:LeftHandThumb4
											{
												OFFSET 2.020889 -1.154053 1.115139
												CHANNELS 6 Xposition Yposition Zposition Xrotation Yrotation Zrotation
												End Site
												{
													OFFSET 190.885437 -115.081749 130.048782
												}
											}
										}
									}
								}
								JOINT mixamorig:LeftHandIndex1
								{
									OFFSET 9.109314 -0.518021 2.259871
									CHANNELS 6 Xposition Yposition Zposition Xrotation Yrotation Zrotation
									JOINT mixamorig:LeftHandIndex2
									{
										OFFSET 3.699989 0.000000 -0.000322
										CHANNELS 6 Xposition Yposition Zposition Xrotation Yrotation Zrotation
										JOINT mixamorig:LeftHandIndex3
										{
											OFFSET 2.850006 0.000000 0.000352
											CHANNELS 6 Xposition Yposition Zposition Xrotation Yrotation Zrotation
											JOINT mixamorig:LeftHandIndex4
											{
												OFFSET 2.774864 -0.000031 -0.000027
												CHANNELS 6 Xposition Yposition Zposition Xrotation Yrotation Zrotation
												End Site
												{
													OFFSET 277.486267 0.000000 -0.009857
												}
											}
										}
									}
								}
								JOINT mixamorig:LeftHandMiddle1
								{
									OFFSET 9.533394 0.000061 0.000044
									CHANNELS 6 Xposition Yposition Zposition Xrotation Yrotation Zrotation
									JOINT mixamorig:LeftHandMiddle2
									{
										OFFSET 3.699989 -0.000015 -0.000231
										CHANNELS 6 Xposition Yposition Zposition Xrotation Yrotation Zrotation
										JOINT mixamorig:LeftHandMiddle3
										{
											OFFSET 2.949997 -0.000015 -0.000059
											CHANNELS 6 Xposition Yposition Zposition Xrotation Yrotation Zrotation
											JOINT mixamorig:LeftHandMiddle4
											{
												OFFSET 2.952896 0.000031 0.000063
												CHANNELS 6 Xposition Yposition Zposition Xrotation Yrotation Zrotation
												End Site
												{
													OFFSET 295.289337 0.000000 0.022810
												}
											}
										}
									}
								}
								JOINT mixamorig:LeftHandRing1
								{
									OFFSET 9.104523 -0.042999 -1.865074
									CHANNELS 6 Xposition Yposition Zposition Xrotation Yrotation Zrotation
									JOINT mixamorig:LeftHandRing2
									{
										OFFSET 3.150009 -0.000031 0.000043
										CHANNELS 6 Xposition Yposition Zposition Xrotation Yrotation Zrotation
										JOINT mixamorig:LeftHandRing3
										{
											OFFSET 2.949982 -0.000015 0.000040
											CHANNELS 6 Xposition Yposition Zposition Xrotation Yrotation Zrotation
											JOINT mixamorig:LeftHandRing4
											{
												OFFSET 2.644348 0.000000 0.000057
												CHANNELS 6 Xposition Yposition Zposition Xrotation Yrotation Zrotation
												End Site
												{
													OFFSET 264.434631 0.000000 0.012105
												}
											}
										}
									}
								}
								JOINT mixamorig:LeftHandPinky1
								{
									OFFSET 8.077789 -0.486847 -3.806259
									CHANNELS 6 Xposition Yposition Zposition Xrotation Yrotation Zrotation
									JOINT mixamorig:LeftHandPinky2
									{
										OFFSET 3.599953 0.000031 0.014727
										CHANNELS 6 Xposition Yposition Zposition Xrotation Yrotation Zrotation
										JOINT mixamorig:LeftHandPinky3
										{
											OFFSET 2.100021 0.000015 0.007705
											CHANNELS 6 Xposition Yposition Zposition Xrotation Yrotation Zrotation
											JOINT mixamorig:LeftHandPinky4
											{
												OFFSET 2.125504 0.000031 0.007517
												CHANNELS 6 Xposition Yposition Zposition Xrotation Yrotation Zrotation
												End Site
												{
													OFFSET 212.550781 0.000000 0.625752
												}
											}
										}
									}
								}
							}
						}
					}
				}
			}
		}
	}
	JOINT mixamorig:RightUpLeg
	{
		OFFSET -8.207787 -6.751648 -1.599560
		CHANNELS 6 Xposition Yposition Zposition Xrotation Yrotation Zrotation
		JOINT mixamorig:RightLeg
		{
			OFFSET -0.000002 -44.370117 0.345942
			CHANNELS 6 Xposition Yposition Zposition Xrotation Yrotation Zrotation
			JOINT mixamorig:RightFoot
			{
				OFFSET 0.000003 -44.423679 -3.043532
				CHANNELS 6 Xposition Yposition Zposition Xrotation Yrotation Zrotation
				JOINT mixamorig:RightToeBase
				{
					OFFSET -0.000002 -8.728671 10.710558
					CHANNELS 6 Xposition Yposition Zposition Xrotation Yrotation Zrotation
					JOINT mixamorig:RightToe_End
					{
						OFFSET -0.000001 -0.000679 9.278119
						CHANNELS 6 Xposition Yposition Zposition Xrotation Yrotation Zrotation
						End Site
						{
							OFFSET 0.000000 -0.067690 927.812134
						}
					}
				}
			}
		}
	}
	JOINT mixamorig:LeftUpLeg
	{
		OFFSET 8.207793 -6.751686 -1.599556
		CHANNELS 6 Xposition Yposition Zposition Xrotation Yrotation Zrotation
		JOINT mixamorig:LeftLeg
		{
			OFFSET -0.000004 -44.370014 0.346954
			CHANNELS 6 Xposition Yposition Zposition Xrotation Yrotation Zrotation
			JOINT mixamorig:LeftFoot
			{
				OFFSET -0.000001 -44.423672 -3.044401
				CHANNELS 6 Xposition Yposition Zposition Xrotation Yrotation Zrotation
				JOINT mixamorig:LeftToeBase
				{
					OFFSET -0.000002 -8.728669 10.710558
					CHANNELS 6 Xposition Yposition Zposition Xrotation Yrotation Zrotation
					JOINT mixamorig:LeftToe_End
					{
						OFFSET -0.000003 -0.000679 9.278133
						CHANNELS 6 Xposition Yposition Zposition Xrotation Yrotation Zrotation
						End Site
						{
							OFFSET 0.000000 -0.068021 927.813477
						}
					}
				}
			}
		}
	}
}
MOTION
Frames: 3
Frame Time: 0.033333
0.000006 104.270477 1.554256 0.000010 0.000003 -0.000113 -0.000005 10.181587 0.131522 0.000001 -0.000003 0.000084 -0.000000 9.893967 -1.470711 0.000001 0.000000 -0.000000 -0.000000 9.220802 -1.370642 0.000000 -0.000000 -0.000000 0.000001 16.740433 -2.049030 0.000000 -0.000000 -0.000000 0.000000 9.617859 1.685014 0.000000 0.000000 0.000000 0.000002 22.037384 7.501101 0.000000 -0.000000 0.000000 -4.569968 11.014880 -2.160881 0.000008 0.000001 -0.000038 -10.592868 -0.524771 -2.231886 75.424987 32.399019 -25.321376 -27.841516 0.000024 0.000554 -50.112039 107.370437 64.919036 -28.328808 0.000007 0.000027 -0.000325 -0.000046 0.000005 -2.464407 -1.573800 2.682331 -44.378119 -160.711360 -1.538420 -3.215269 -1.872532 1.924601 148.756575 33.587387 26.237963 -2.654973 -1.527898 1.513071 149.246600 27.258945 -30.176339 -2.018833 -1.151995 1.108060 -0.000003 0.000002 0.000002 -9.108382 -0.517563 2.260149 102.231949 17.990080 -22.269154 -3.700078 0.000298 0.001514 96.022399 16.231470 -17.978952 -2.850090 0.000366 -0.000254 96.416166 12.730148 -14.226205 -2.772171 -0.000001 -0.000019 -0.000001 0.000002 0.000000 -9.532587 0.000265 0.000264 99.572417 16.085273 -19.143337 -3.700068 0.000315 0.004002 99.251009 11.678345 -13.605641 -2.950049 0.000347 -0.001749 101.803560 11.180579 -13.727533 -2.946641 -0.000014 -0.000157 0.000001 -0.000001 -0.000002 -9.103683 -0.042753 -1.864831 100.351059 16.170531 -19.282963 -3.379306 0.000347 -0.000787 98.985096 5.480192 -6.432179 -2.889740 0.000365 0.000674 104.270686 3.620301 -4.711273 -2.638813 -0.000011 0.000942 0.000001 0.000002 0.000001 -8.076735 -0.486374 -3.805989 93.580852 16.045356 -16.907688 -3.600027 0.000301 -0.003512 96.411808 5.004629 -5.219084 -2.100004 0.000336 -0.005463 99.310623 2.382502 -2.558877 -2.115777 -0.000056 -0.003676 -0.000002 -0.000000 0.000001 4.570446 11.014691 -2.160851 -0.000018 0.000010 -0.000021 10.592412 -0.524468 -2.232368 73.650633 -16.387123 12.307333 27.841825 0.000055 -0.000200 -72.942944 -106.573122 -89.494309 28.328833 -0.000029 0.000022 0.000022 -0.000089 -0.000000 2.466148 -1.576168 2.681897 -19.496753 157.368706 -49.221113 3.217839 -1.871777 1.916384 161.634200 -26.765093 22.290787 2.656104 -1.528664 1.514473 139.551720 -27.686705 52.451731 2.020887 -1.154066 1.115142 0.000001 0.000003 0.000004 9.109377 -0.517900 2.259744 74.319657 -20.549688 15.636540 3.700054 0.000086 -0.000436 68.888694 -22.244412 15.371438 2.850058 0.000128 0.000232 65.293938 -16.803387 10.810371 2.774870 -0.000017 -0.000027 0.000001 0.000000 -0.000002 9.533465 0.000154 -0.000068 71.572671 -18.966206 13.725365 3.700052 0.000128 -0.000374 74.920202 -18.547123 14.260267 2.950061 0.000103 -0.000172 71.310419 -21.246316 15.329248 2.952861 -0.000029 0.000064 -0.000001 0.000000 0.000002 9.104577 -0.042899 -1.865227 70.929302 -17.074595 12.209171 3.150040 0.000147 -0.000096 76.635802 -13.026335 10.312316 2.950016 0.000137 -0.000064 76.508719 -14.613738 11.547441 2.644310 0.000016 0.000055 0.000000 0.000000 0.000000 8.077833 -0.486756 -3.806415 65.799078 -17.197308 11.568804 3.599989 0.000145 0.014579 68.749474 -13.101585 9.337494 2.100021 0.000150 0.007536 71.122767 -12.848808 9.557831 2.125507 0.000000 0.007519 0.000001 -0.000001 -0.000001 -8.207786 -6.751667 -1.599560 -0.077001 -0.000003 0.000080 -0.000002 -44.370110 0.345938 0.153719 -0.000000 -0.000000 0.000000 -44.423679 -3.043532 -0.076700 0.000000 -0.000002 -0.000006 -8.728667 10.710559 -0.000009 -0.000000 -0.000000 -0.000001 -0.000679 9.278123 0.000000 -0.000000 -0.000000 8.207792 -6.751710 -1.599556 -0.074518 -0.000003 0.000081 -0.000002 -44.370014 0.346960 0.148822 0.000002 0.000000 -0.000001 -44.423664 -3.044403 -0.074314 0.000000 -0.000002 -0.000004 -8.728671 10.710558 0.000007 -0.000000 -0.000000 0.000000 -0.000680 9.278137 -0.000000 0.000000 -0.000001 
0.000006 104.270477 1.554256 0.000010 0.000003 -0.000113 -0.000005 10.181587 0.131522 0.000001 -0.000003 0.000084 -0.000000 9.893967 -1.470711 0.000001 0.000000 -0.000000 -0.000000 9.220802 -1.370642 0.000000 -0.000000 -0.000000 0.000001 16.740433 -2.049030 0.000000 -0.000000 -0.000000 0.000000 9.617859 1.685014 0.000000 0.000000 0.000000 0.000002 22.037384 7.501101 0.000000 -0.000000 0.000000 -4.569968 11.014880 -2.160881 0.000008 0.000001 -0.000038 -10.592845 -0.524811 -2.231819 75.396894 45.346504 -35.786827 -27.841515 -0.000007 0.000549 -48.137496 104.050986 59.559127 -28.328844 0.000008 0.000027 -0.000322 -0.000045 0.000007 -2.464407 -1.573759 2.682306 -50.098686 -163.041820 -15.660661 -3.215242 -1.872506 1.924597 143.829686 32.808254 34.149460 -2.654954 -1.527876 1.513046 147.730640 28.388358 -20.785886 -2.018835 -1.151996 1.108065 -0.000004 0.000001 0.000005 -9.108379 -0.517548 2.260144 101.722731 15.224835 -18.709251 -3.700084 0.000307 0.001527 97.474996 13.710666 -15.578073 -2.850093 0.000355 -0.000248 97.507050 11.857572 -13.507130 -2.772164 -0.000015 -0.000020 -0.000000 0.000002 0.000000 -9.532594 0.000265 0.000274 98.246677 15.565723 -18.110701 -3.700057 0.000333 0.004000 98.730849 12.475327 -14.406450 -2.950068 0.000341 -0.001770 101.550576 12.387875 -15.137470 -2.946609 -0.000015 -0.000152 0.000000 0.000002 -0.000000 -9.103703 -0.042757 -1.864828 100.052818 18.466320 -21.894675 -3.379326 0.000312 -0.000774 98.984105 8.653184 -10.141664 -2.889747 0.000363 0.000678 106.349693 6.258661 -8.412334 -2.638802 -0.000011 0.000948 -0.000001 0.000000 0.000000 -8.076752 -0.486395 -3.805989 93.447390 19.792652 -20.831210 -3.600044 0.000289 -0.003488 94.156842 7.787751 -7.994053 -2.100007 0.000334 -0.005465 97.121028 3.795613 -4.057049 -2.115778 -0.000041 -0.003681 0.000001 -0.000000 -0.000005 4.570446 11.014691 -2.160851 -0.000018 0.000010 -0.000021 10.592442 -0.524460 -2.232395 73.704052 -27.329863 20.654996 27.841827 0.000043 -0.000179 -73.016867 -103.917053 -86.820003 28.328833 -0.000027 0.000019 0.000028 -0.000091 -0.000000 2.466185 -1.576136 2.681862 -7.660846 162.272509 -73.969979 3.217849 -1.871830 1.916397 164.678197 -25.396902 26.695574 2.656099 -1.528715 1.514494 139.470687 -27.418599 59.841432 2.020891 -1.154073 1.115141 0.000004 0.000002 0.000002 9.109359 -0.517915 2.259747 72.226102 -21.689121 15.902412 3.700048 0.000127 -0.000465 72.588703 -15.019009 11.072321 2.850030 0.000144 0.000212 70.117868 -11.770068 8.273383 2.774887 -0.000046 -0.000025 -0.000001 -0.000001 0.000000 9.533434 0.000162 -0.000069 72.105153 -19.324685 14.123340 3.700033 0.000157 -0.000363 75.619886 -12.680694 9.853564 2.950052 0.000138 -0.000201 73.553440 -13.410022 10.045938 2.952865 -0.000015 0.000064 -0.000000 0.000000 0.000000 9.104559 -0.042894 -1.865217 72.079820 -18.320307 13.385030 3.150048 0.000164 -0.000098 76.913975 -11.845291 9.421490 2.950030 0.000156 -0.000079 77.509977 -10.896820 8.757969 2.644317 0.000046 0.000055 -0.000000 0.000001 0.000000 8.077820 -0.486760 -3.806405 66.928655 -19.258161 13.208989 3.599998 0.000139 0.014579 69.159873 -14.980410 10.722663 2.100034 0.000138 0.007551 73.062090 -12.150839 9.378521 2.125503 -0.000016 0.007517 0.000001 0.000002 0.000000 -8.207786 -6.751667 -1.599560 -0.077001 -0.000003 0.000080 -0.000002 -44.370110 0.345938 0.153719 -0.000000 -0.000000 0.000000 -44.423679 -3.043532 -0.076700 0.000000 -0.000002 -0.000006 -8.728667 10.710559 -0.000009 -0.000000 -0.000000 -0.000001 -0.000679 9.278123 0.000000 -0.000000 -0.000000 8.207792 -6.751710 -1.599556 -0.074518 -0.000003 0.000081 -0.000002 -44.370014 0.346960 0.148822 0.000002 0.000000 -0.000001 -44.423664 -3.044403 -0.074314 0.000000 -0.000002 -0.000004 -8.728671 10.710558 0.000007 -0.000000 -0.000000 0.000000 -0.000680 9.278137 -0.000000 0.000000 -0.000001 
0.000006 104.270477 1.554256 0.000010 0.000003 -0.000113 -0.000005 10.181587 0.131522 0.000001 -0.000003 0.000084 -0.000000 9.893967 -1.470711 0.000001 0.000000 -0.000000 -0.000000 9.220802 -1.370642 0.000000 -0.000000 -0.000000 0.000001 16.740433 -2.049030 0.000000 -0.000000 -0.000000 0.000000 9.617859 1.685014 0.000000 0.000000 0.000000 0.000002 22.037384 7.501101 0.000000 -0.000000 0.000000 -4.569968 11.014880 -2.160881 0.000008 0.000001 -0.000038 -10.592845 -0.524805 -2.231814 75.564623 45.704122 -36.183108 -27.841524 -0.000005 0.000538 -46.623489 102.940848 56.840510 -28.328840 0.000023 0.000023 -0.000321 -0.000047 0.000012 -2.464411 -1.573816 2.682333 -46.057892 -158.537993 -5.941503 -3.215231 -1.872486 1.924611 144.646031 33.115431 34.225074 -2.654968 -1.527867 1.513050 147.773738 28.131251 -23.414461 -2.018823 -1.152016 1.108069 -0.000001 -0.000006 0.000001 -9.108392 -0.517549 2.260155 101.874717 15.560682 -19.169290 -3.700074 0.000314 0.001516 97.850157 13.599985 -15.553664 -2.850091 0.000370 -0.000246 97.743210 11.418630 -13.061846 -2.772165 -0.000000 -0.000021 -0.000000 0.000004 0.000001 -9.532613 0.000264 0.000257 98.002081 15.825673 -18.331664 -3.700063 0.000333 0.004008 99.910040 11.923011 -14.053283 -2.950059 0.000337 -0.001763 102.235781 11.908816 -14.730929 -2.946619 -0.000000 -0.000154 -0.000000 0.000002 0.000001 -9.103706 -0.042759 -1.864848 98.568973 18.602444 -21.497471 -3.379318 0.000309 -0.000765 100.369138 8.597153 -10.325028 -2.889751 0.000350 0.000680 107.491577 6.080255 -8.345964 -2.638833 -0.000026 0.000934 0.000001 0.000005 0.000000 -8.076769 -0.486394 -3.805992 92.027824 20.228606 -20.781791 -3.600032 0.000274 -0.003483 95.828968 8.271098 -8.762998 -2.100002 0.000331 -0.005449 98.468959 4.035788 -4.431989 -2.115776 -0.000051 -0.003681 0.000003 0.000005 -0.000003 4.570446 11.014691 -2.160851 -0.000018 0.000010 -0.000021 10.592463 -0.524461 -2.232397 73.187628 -34.170176 25.710838 27.841835 0.000040 -0.000190 -72.104914 -102.735997 -84.656465 28.328846 -0.000026 0.000027 0.000021 -0.000087 -0.000002 2.466269 -1.576034 2.681823 8.339883 172.648864 -106.923688 3.217851 -1.871826 1.916410 166.439074 -23.119244 34.118127 2.656103 -1.528686 1.514505 140.407980 -26.952720 61.787899 2.020895 -1.154080 1.115148 0.000001 -0.000001 0.000004 9.109390 -0.517910 2.259764 72.349175 -24.018056 17.672290 3.700050 0.000124 -0.000448 72.940724 -16.508823 12.254236 2.850049 0.000157 0.000219 70.749306 -12.693171 9.029478 2.774880 -0.000016 -0.000026 -0.000000 -0.000002 -0.000000 9.533461 0.000154 -0.000070 72.566655 -21.636788 15.964350 3.700027 0.000152 -0.000382 75.187385 -13.614144 10.499900 2.950044 0.000131 -0.000189 73.550257 -13.918746 10.427993 2.952865 -0.000030 0.000060 0.000000 -0.000001 0.000000 9.104592 -0.042897 -1.865213 72.738899 -20.759143 15.366133 3.150051 0.000163 -0.000094 76.048535 -12.811131 10.035568 2.950023 0.000152 -0.000080 76.631301 -11.171522 8.839590 2.644316 0.000014 0.000057 0.000000 0.000001 0.000000 8.077847 -0.486759 -3.806381 67.726394 -21.219618 14.754961 3.600019 0.000145 0.014581 68.600118 -16.206768 11.462050 2.100012 0.000157 0.007555 72.002140 -13.006519 9.828627 2.125520 -0.000015 0.007520 0.000000 -0.000001 -0.000000 -8.207786 -6.751667 -1.599560 -0.077001 -0.000003 0.000080 -0.000002 -44.370110 0.345938 0.153719 -0.000000 -0.000000 0.000000 -44.423679 -3.043532 -0.076700 0.000000 -0.000002 -0.000006 -8.728667 10.710559 -0.000009 -0.000000 -0.000000 -0.000001 -0.000679 9.278123 0.000000 -0.000000 -0.000000 8.207792 -6.751710 -1.599556 -0.074518 -0.000003 0.000081 -0.000002 -44.370014 0.346960 0.148822 0.000002 0.000000 -0.000001 -44.423664 -3.044403 -0.074314 0.000000 -0.000002 -0.000004 -8.728671 10.710558 0.000007 -0.000000 -0.000000 0.000000 -0.000680 9.278137 -0.000000 0.000000 -0.000001 
